<?xml version="1.0" encoding="UTF-8" standalone="no"?>
<!-- Created with Inkscape (http://www.inkscape.org/) -->

<svg
   xmlns:dc="http://purl.org/dc/elements/1.1/"
   xmlns:cc="http://creativecommons.org/ns#"
   xmlns:rdf="http://www.w3.org/1999/02/22-rdf-syntax-ns#"
   xmlns:svg="http://www.w3.org/2000/svg"
   xmlns="http://www.w3.org/2000/svg"
   xmlns:sodipodi="http://sodipodi.sourceforge.net/DTD/sodipodi-0.dtd"
   xmlns:inkscape="http://www.inkscape.org/namespaces/inkscape"
   width="35"
   height="35"
   viewBox="0 0 9.2604166 9.2604161"
   version="1.1"
   id="svg934"
   inkscape:version="0.92.3 (2405546, 2018-03-11)"
   sodipodi:docname="ButterFlyy.svg">
  <defs
     id="defs928">
    <linearGradient
       id="f"
       gradientUnits="userSpaceOnUse"
       x1="-1377.338"
       y1="3098.697"
       x2="-1354.79"
       y2="3098.697"
       gradientTransform="rotate(-34.755,608.84601,270.8185)">
      <stop
         offset="0"
         stop-color="#f6d0e3"
         id="stop70" />
      <stop
         offset=".226"
         stop-color="#e5b2d7"
         id="stop72" />
      <stop
         offset=".563"
         stop-color="#cf8cc7"
         id="stop74" />
      <stop
         offset=".833"
         stop-color="#c274bd"
         id="stop76" />
      <stop
         offset="1"
         stop-color="#bd6bb9"
         id="stop78" />
    </linearGradient>
    <linearGradient
       id="g"
       gradientUnits="userSpaceOnUse"
       x1="-1406.338"
       y1="3098.697"
       x2="-1383.7889"
       y2="3098.697"
       gradientTransform="rotate(-34.755,608.84601,270.8185)">
      <stop
         offset="0"
         stop-color="#bd6bb9"
         id="stop83" />
      <stop
         offset=".167"
         stop-color="#c274bd"
         id="stop85" />
      <stop
         offset=".437"
         stop-color="#cf8cc7"
         id="stop87" />
      <stop
         offset=".774"
         stop-color="#e5b2d7"
         id="stop89" />
      <stop
         offset="1"
         stop-color="#f6d0e3"
         id="stop91" />
    </linearGradient>
  </defs>
  <sodipodi:namedview
     id="base"
     pagecolor="#ffffff"
     bordercolor="#666666"
     borderopacity="1.0"
     inkscape:pageopacity="0.0"
     inkscape:pageshadow="2"
     inkscape:zoom="5.6"
     inkscape:cx="85.638952"
     inkscape:cy="38.628911"
     inkscape:document-units="mm"
     inkscape:current-layer="layer1"
     showgrid="false"
     fit-margin-top="0"
     fit-margin-left="0"
     fit-margin-right="0"
     fit-margin-bottom="0"
     inkscape:window-width="2560"
     inkscape:window-height="1406"
     inkscape:window-x="-11"
     inkscape:window-y="-11"
     inkscape:window-maximized="1"
     units="px" />
  <metadata
     id="metadata931">
    <rdf:RDF>
      <cc:Work
         rdf:about="">
        <dc:format>image/svg+xml</dc:format>
        <dc:type
           rdf:resource="http://purl.org/dc/dcmitype/StillImage" />
        <dc:title></dc:title>
      </cc:Work>
    </rdf:RDF>
  </metadata>
  <g
     inkscape:label="Layer 1"
     inkscape:groupmode="layer"
     id="layer1"
     transform="translate(-274.0028,-182.99679)">
    <g
       transform="matrix(0.15508509,0,0,0.15508509,188.14953,-390.10252)"
       id="g978"
       inkscape:export-xdpi="96"
       inkscape:export-ydpi="96">
      <ellipse
         style="fill:#322512"
         id="ellipse66"
         ry="10.115"
         rx="2.79"
         cy="3403.8164"
         cx="-1643.5256"
         transform="rotate(-34.755)" />
      <circle
         style="fill:#322512"
         id="circle68"
         r="2.4319999"
         cy="3723.7839"
         cx="583.52502" />
      <path
         inkscape:connector-curvature="0"
         style="fill:url(#f)"
         id="path81"
         d="m 587.73703,3719.52 c 0,0 0.412,11.114 13.559,19.539 4.083,2.93 15.468,-1.213 10.332,-9.476 0,0 -4.475,-6.294 -11.41,-1.921 -0.169,-2.212 -0.44,-1.127 1.174,-3.784 1.614,-2.657 3.047,-7.238 -1.552,-12.757 -0.631,-1.74 -2.343,-3.561 -2.839,-12.12 -0.134,-0.932 -1.572,-7.619 -6.93,4.041 -1.551,5.239 -2.185,12.724 -2.334,16.478 z" />
      <path
         inkscape:connector-curvature="0"
         style="fill:url(#g)"
         id="path94"
         d="m 578.05603,3726.237 c 0,0 10.267,4.275 13.559,19.539 1.316,4.85 -6.549,14.066 -12.492,6.363 0,0 -4.33,-6.394 2.193,-11.361 -2.013,-0.932 -0.902,-0.807 -3.956,-0.225 -3.054,0.583 -7.846,0.322 -11.407,-5.917 -1.409,-1.2 -2.516,-3.441 -10.36,-6.9 -0.826,-0.452 -6.587,-4.139 6.211,-5.078 5.451,0.38 12.684,2.405 16.252,3.579 z" />
    </g>
  </g>
</svg>
