<?xml version="1.0" encoding="UTF-8" standalone="no"?>
<svg
   xmlns:dc="http://purl.org/dc/elements/1.1/"
   xmlns:cc="http://creativecommons.org/ns#"
   xmlns:rdf="http://www.w3.org/1999/02/22-rdf-syntax-ns#"
   xmlns:svg="http://www.w3.org/2000/svg"
   xmlns="http://www.w3.org/2000/svg"
   version="1.1"
   id="svg38"
   xml:space="preserve"
   width="1306.0876"
   height="588.00531"
   viewBox="0 0 1306.0876 588.00531"><metadata
   id="metadata44"><rdf:RDF><cc:Work
       rdf:about=""><dc:format>image/svg+xml</dc:format><dc:type
         rdf:resource="http://purl.org/dc/dcmitype/StillImage" /><dc:title></dc:title></cc:Work></rdf:RDF></metadata><defs
   id="defs42"><clipPath
   clipPathUnits="userSpaceOnUse"
   id="clipPath54"><path
     d="M 0,1017.008 H 1017.008 V 0 H 0 Z"
     id="path52" /></clipPath><clipPath
   clipPathUnits="userSpaceOnUse"
   id="clipPath82"><path
     d="M 0,1017.008 H 1017.008 V 0 H 0 Z"
     id="path80" /></clipPath>

<linearGradient
   y2="3845.1514"
   x2="600.76538"
   y1="3845.1514"
   x1="590.46118"
   gradientUnits="userSpaceOnUse"
   id="SVGID_1_"><stop
     id="stop18"
     style="stop-color:#618EC9"
     offset="0" /><stop
     id="stop20"
     style="stop-color:#D1EDFB"
     offset="1" /></linearGradient><linearGradient
   y2="3841.5195"
   x2="589.74237"
   y1="3841.5195"
   x1="582.42328"
   gradientUnits="userSpaceOnUse"
   id="SVGID_2_"><stop
     id="stop25"
     style="stop-color:#618EC9"
     offset="0" /><stop
     id="stop27"
     style="stop-color:#D1EDFB"
     offset="1" /></linearGradient><linearGradient
   y2="3791.9395"
   x2="603.22382"
   y1="3803.5332"
   x1="609.91748"
   gradientUnits="userSpaceOnUse"
   id="SVGID_3_"><stop
     id="stop40"
     style="stop-color:#0082C8"
     offset="0" /><stop
     id="stop42"
     style="stop-color:#138FCF"
     offset="0.0835" /><stop
     id="stop44"
     style="stop-color:#38A7DE"
     offset="0.271" /><stop
     id="stop46"
     style="stop-color:#55BAE9"
     offset="0.4585" /><stop
     id="stop48"
     style="stop-color:#6AC8F1"
     offset="0.6436" /><stop
     id="stop50"
     style="stop-color:#77D0F5"
     offset="0.8255" /><stop
     id="stop52"
     style="stop-color:#7BD3F7"
     offset="1" /></linearGradient><linearGradient
   y2="3771.874"
   x2="593.25348"
   y1="3795.5752"
   x1="594.49561"
   gradientUnits="userSpaceOnUse"
   id="SVGID_4_"><stop
     id="stop57"
     style="stop-color:#0082C8"
     offset="0" /><stop
     id="stop59"
     style="stop-color:#138FCF"
     offset="0.0835" /><stop
     id="stop61"
     style="stop-color:#38A7DE"
     offset="0.271" /><stop
     id="stop63"
     style="stop-color:#55BAE9"
     offset="0.4585" /><stop
     id="stop65"
     style="stop-color:#6AC8F1"
     offset="0.6436" /><stop
     id="stop67"
     style="stop-color:#77D0F5"
     offset="0.8255" /><stop
     id="stop69"
     style="stop-color:#7BD3F7"
     offset="1" /></linearGradient><linearGradient
   gradientTransform="matrix(0.8216,-0.5701,0.5701,0.8216,-40.2729,395.4174)"
   y2="3098.6965"
   x2="-1354.7897"
   y1="3098.6965"
   x1="-1377.3384"
   gradientUnits="userSpaceOnUse"
   id="SVGID_5_"><stop
     id="stop78"
     style="stop-color:#F6D0E3"
     offset="0" /><stop
     id="stop80"
     style="stop-color:#E5B2D7"
     offset="0.226" /><stop
     id="stop82"
     style="stop-color:#CF8CC7"
     offset="0.563" /><stop
     id="stop84"
     style="stop-color:#C274BD"
     offset="0.8329" /><stop
     id="stop86"
     style="stop-color:#BD6BB9"
     offset="1" /></linearGradient><linearGradient
   gradientTransform="matrix(0.8216,-0.5701,0.5701,0.8216,-40.2729,395.4174)"
   y2="3098.6965"
   x2="-1383.7894"
   y1="3098.6965"
   x1="-1406.3381"
   gradientUnits="userSpaceOnUse"
   id="SVGID_6_"><stop
     id="stop91"
     style="stop-color:#BD6BB9"
     offset="0" /><stop
     id="stop93"
     style="stop-color:#C274BD"
     offset="0.1671" /><stop
     id="stop95"
     style="stop-color:#CF8CC7"
     offset="0.437" /><stop
     id="stop97"
     style="stop-color:#E5B2D7"
     offset="0.774" /><stop
     id="stop99"
     style="stop-color:#F6D0E3"
     offset="1" /></linearGradient><linearGradient
   y2="3845.1509"
   x2="600.76501"
   y1="3845.1509"
   x1="590.461"
   gradientUnits="userSpaceOnUse"
   id="b"><stop
     id="stop823"
     stop-color="#618ec9"
     offset="0" /><stop
     id="stop825"
     stop-color="#d1edfb"
     offset="1" /></linearGradient><linearGradient
   y2="3841.519"
   x2="589.742"
   y1="3841.519"
   x1="582.42297"
   gradientUnits="userSpaceOnUse"
   id="c"><stop
     id="stop830"
     stop-color="#618ec9"
     offset="0" /><stop
     id="stop832"
     stop-color="#d1edfb"
     offset="1" /></linearGradient><linearGradient
   y2="3791.939"
   x2="603.224"
   y1="3803.533"
   x1="609.91803"
   gradientUnits="userSpaceOnUse"
   id="d"><stop
     id="stop845"
     stop-color="#0082c8"
     offset="0" /><stop
     id="stop847"
     stop-color="#138fcf"
     offset=".084" /><stop
     id="stop849"
     stop-color="#38a7de"
     offset=".271" /><stop
     id="stop851"
     stop-color="#55bae9"
     offset=".459" /><stop
     id="stop853"
     stop-color="#6ac8f1"
     offset=".644" /><stop
     id="stop855"
     stop-color="#77d0f5"
     offset=".826" /><stop
     id="stop857"
     stop-color="#7bd3f7"
     offset="1" /></linearGradient><linearGradient
   y2="3771.874"
   x2="593.25403"
   y1="3795.575"
   x1="594.49597"
   gradientUnits="userSpaceOnUse"
   id="e"><stop
     id="stop862"
     stop-color="#0082c8"
     offset="0" /><stop
     id="stop864"
     stop-color="#138fcf"
     offset=".084" /><stop
     id="stop866"
     stop-color="#38a7de"
     offset=".271" /><stop
     id="stop868"
     stop-color="#55bae9"
     offset=".459" /><stop
     id="stop870"
     stop-color="#6ac8f1"
     offset=".644" /><stop
     id="stop872"
     stop-color="#77d0f5"
     offset=".826" /><stop
     id="stop874"
     stop-color="#7bd3f7"
     offset="1" /></linearGradient><linearGradient
   gradientTransform="rotate(-34.755,611.597,262.028)"
   y2="3098.697"
   x2="-1354.79"
   y1="3098.697"
   x1="-1377.338"
   gradientUnits="userSpaceOnUse"
   id="f"><stop
     id="stop883"
     stop-color="#f6d0e3"
     offset="0" /><stop
     id="stop885"
     stop-color="#e5b2d7"
     offset=".226" /><stop
     id="stop887"
     stop-color="#cf8cc7"
     offset=".563" /><stop
     id="stop889"
     stop-color="#c274bd"
     offset=".833" /><stop
     id="stop891"
     stop-color="#bd6bb9"
     offset="1" /></linearGradient><linearGradient
   gradientTransform="rotate(-34.755,611.597,262.028)"
   y2="3098.697"
   x2="-1383.7889"
   y1="3098.697"
   x1="-1406.338"
   gradientUnits="userSpaceOnUse"
   id="g"><stop
     id="stop896"
     stop-color="#bd6bb9"
     offset="0" /><stop
     id="stop898"
     stop-color="#c274bd"
     offset=".167" /><stop
     id="stop900"
     stop-color="#cf8cc7"
     offset=".437" /><stop
     id="stop902"
     stop-color="#e5b2d7"
     offset=".774" /><stop
     id="stop904"
     stop-color="#f6d0e3"
     offset="1" /></linearGradient></defs>
<g
   transform="matrix(2.7786658,0,0,2.7786658,-828.69563,-10227.247)"
   id="g1103"><path
     d="m 583.016,3797.252 c -5.988,7.28 -12.558,14.075 -19.564,20.483 -3.545,3.165 -7.206,6.187 -11.104,9.028 -3.911,2.814 -8.016,5.515 -12.789,7.469 -2.382,0.976 -4.953,1.767 -7.797,2.087 -1.425,0.145 -2.922,0.163 -4.459,-0.043 a 14.464,14.464 0 0 1 -2.309,-0.487 c -0.384,-0.113 -0.77,-0.223 -1.146,-0.377 l -1.026,-0.411 c -4.196,-1.785 -8.444,-3.392 -12.732,-4.761 -8.542,-2.768 -17.356,-4.584 -25.816,-4.557 -4.213,0.025 -8.322,0.592 -11.984,1.827 -3.666,1.212 -6.832,3.151 -9.079,5.688 -2.24,2.543 -3.576,5.665 -3.984,9.117 a 21.115,21.115 0 0 0 0.091,5.342 c 0.223,1.665 0.684,2.989 1.425,4.328 1.449,2.615 4.026,4.9 7.308,6.575 3.278,1.681 7.142,2.768 11.169,3.344 8.091,1.207 16.773,0.428 25.172,-1.508 8.439,-1.921 16.645,-5.172 24.459,-9.229 0.977,-0.504 1.95,-1.042 2.904,-1.569 0.913,-0.528 1.828,-1.052 2.734,-1.631 a 88.14,88.14 0 0 0 5.4,-3.672 c 3.567,-2.611 7.109,-5.44 10.632,-8.405 7.095,-5.912 14.028,-12.312 22.428,-17.987 2.119,-1.408 4.359,-2.756 6.859,-3.908 2.494,-1.145 5.271,-2.139 8.445,-2.522 5.983,-0.696 12.038,0.713 16.987,3.906 4.952,3.151 8.729,7.919 10.725,13.328 2.046,5.404 2.141,11.441 0.604,16.801 -1.531,5.388 -4.546,10.06 -8.168,13.771 -3.617,3.75 -7.795,6.668 -12.134,9.032 -8.734,4.729 -18.603,7.045 -28.204,7.08 -9.617,0.037 -19.119,-1.729 -27.8,-5.334 4.562,1.072 9.189,1.677 13.807,1.884 4.612,0.247 9.219,0.109 13.728,-0.507 4.502,-0.623 8.922,-1.601 13.115,-3.132 4.223,-1.487 8.111,-3.563 11.82,-5.995 3.678,-2.431 7.07,-5.213 9.723,-8.449 2.667,-3.211 4.604,-6.843 5.392,-10.585 0.798,-3.736 0.396,-7.549 -1.067,-10.875 -1.453,-3.328 -3.996,-6.129 -7.062,-7.823 -3.031,-1.704 -6.642,-2.347 -9.919,-1.772 -2.954,0.513 -6.565,2.635 -9.987,5.136 -3.455,2.533 -6.864,5.499 -10.272,8.58 l -10.41,9.438 c -3.556,3.164 -7.202,6.352 -11.144,9.336 a 100.662,100.662 0 0 1 -6.129,4.337 84.676,84.676 0 0 1 -3.258,2.025 126.512,126.512 0 0 1 -3.234,1.829 111.19,111.19 0 0 1 -27.788,10.765 c -9.775,2.272 -20.048,3.16 -30.473,1.583 -5.197,-0.833 -10.448,-2.352 -15.459,-5.031 -2.497,-1.348 -4.932,-3.003 -7.14,-5.076 -2.211,-2.056 -4.194,-4.547 -5.64,-7.399 a 25.693,25.693 0 0 1 -1.78,-4.451 c -0.451,-1.509 -0.745,-3.172 -0.899,-4.612 a 34.358,34.358 0 0 1 0.127,-8.719 c 0.433,-2.931 1.288,-5.854 2.594,-8.587 a 28.977,28.977 0 0 1 5.153,-7.403 c 4.176,-4.335 9.467,-7.089 14.72,-8.592 5.287,-1.512 10.596,-1.875 15.711,-1.663 10.26,0.46 19.832,3.233 28.86,6.748 4.51,1.797 8.884,3.833 13.154,6.023 l 0.582,0.289 c 0.155,0.091 0.33,0.149 0.501,0.219 0.342,0.137 0.704,0.255 1.093,0.333 0.767,0.179 1.62,0.269 2.526,0.263 1.818,-0.028 3.818,-0.401 5.825,-1.021 4.024,-1.256 8.098,-3.235 12.037,-5.492 3.948,-2.265 7.81,-4.832 11.626,-7.455 a 219.101,219.101 0 0 0 11.31,-8.201 324.233,324.233 0 0 0 11.01,-8.753"
     id="path815"
     style="fill:#618ec9" /><path
     d="m 531.727,3823.193 c -1.035,-0.039 -1.746,-0.312 -2.508,-0.556 a 24.034,24.034 0 0 1 -2.107,-0.879 c -1.356,-0.637 -2.656,-1.334 -3.943,-2.044 a 144.312,144.312 0 0 1 -7.492,-4.573 c -4.889,-3.193 -9.671,-6.556 -14.22,-10.273 a 91.791,91.791 0 0 1 -6.591,-5.905 c -2.109,-2.081 -4.122,-4.349 -5.893,-6.849 -3.473,-4.992 -6.164,-10.624 -7.388,-16.747 -1.173,-6.081 -1.043,-12.732 1.522,-18.868 1.264,-3.055 3.177,-5.876 5.524,-8.245 1.198,-1.148 2.46,-2.253 3.826,-3.163 a 24.445,24.445 0 0 1 4.374,-2.456 c 3.111,-1.396 6.651,-1.991 10.028,-1.895 3.388,0.113 6.581,0.865 9.527,1.769 2.941,0.913 5.685,1.981 8.281,2.833 2.585,0.857 5.046,1.456 7.06,1.389 2.013,-0.061 4.404,-0.773 6.936,-1.744 2.541,-0.965 5.237,-2.151 8.171,-3.195 2.942,-1.033 6.179,-1.935 9.707,-2.183 3.514,-0.229 7.295,0.265 10.647,1.629 a 26.088,26.088 0 0 1 4.726,2.439 c 1.475,0.911 2.864,2.036 4.186,3.221 2.596,2.447 4.797,5.419 6.252,8.691 1.474,3.261 2.313,6.733 2.611,10.149 0.326,3.425 0.122,6.808 -0.407,10.088 -1.107,6.577 -4.125,12.522 -7.993,17.676 -1.975,2.604 -4.186,4.9 -6.436,6.951 a 88.512,88.512 0 0 1 -6.982,5.757 c -4.798,3.556 -9.788,6.716 -14.879,9.672 a 149.003,149.003 0 0 1 -7.773,4.213 c -1.329,0.648 -2.669,1.285 -4.062,1.859 -0.696,0.289 -1.414,0.551 -2.162,0.784 -0.778,0.212 -1.505,0.452 -2.542,0.455 m 0,-2.591 c 0.416,-0.021 1.087,-0.235 1.685,-0.451 a 22.515,22.515 0 0 0 1.869,-0.817 40.211,40.211 0 0 0 3.691,-2.037 82.445,82.445 0 0 0 7.043,-4.844 c 4.55,-3.459 8.839,-7.276 12.819,-11.288 1.991,-2.003 3.917,-4.047 5.669,-6.167 1.771,-2.121 3.321,-4.271 4.559,-6.508 1.252,-2.264 2.224,-4.684 2.981,-7.132 a 54.99,54.99 0 0 0 1.785,-7.371 c 0.85,-4.903 0.549,-9.884 -1.262,-13.969 a 17.7,17.7 0 0 0 -3.691,-5.465 c -1.584,-1.525 -3.572,-2.963 -5.548,-3.79 -1.977,-0.913 -4.058,-1.28 -6.307,-1.26 -2.256,0.052 -4.683,0.563 -7.226,1.336 -2.555,0.779 -5.213,1.808 -8.123,2.775 -2.903,0.941 -6.148,1.912 -9.943,1.88 -3.793,-0.096 -6.969,-1.181 -9.82,-2.235 -2.855,-1.081 -5.463,-2.225 -8.013,-3.135 -2.538,-0.904 -5.009,-1.564 -7.405,-1.75 -2.387,-0.155 -4.706,0.115 -6.928,0.993 -2.225,0.805 -4.416,2.228 -6.26,3.832 -1.82,1.661 -3.34,3.644 -4.42,5.911 -2.198,4.528 -2.689,10.004 -1.942,15.339 0.759,5.337 2.485,10.717 5.372,15.433 1.441,2.339 3.189,4.517 5.101,6.609 1.903,2.094 3.946,4.091 6.06,6.016 4.231,3.852 8.726,7.465 13.48,10.688 a 83.49,83.49 0 0 0 7.321,4.484 41.12,41.12 0 0 0 3.812,1.852 c 0.641,0.276 1.288,0.517 1.923,0.723 0.612,0.184 1.299,0.363 1.718,0.348"
     id="path817"
     style="fill:#a180bf" /><path
     d="m 530.642,3740.65 c -8.387,0 -15.186,-6.84 -15.186,-15.276 0,-8.438 6.8,-15.277 15.186,-15.277 8.386,0 15.186,6.84 15.186,15.277 10e-4,8.437 -6.798,15.277 -15.186,15.277 m 0,-41.507 c -12.1,0 -21.91,9.868 -21.91,22.04 0,12.173 9.81,22.04 21.91,22.04 12.1,0 21.91,-9.867 21.91,-22.04 0,-12.171 -9.81,-22.04 -21.91,-22.04"
     id="path819"
     style="fill:#bd6bb9" /><path
     d="m 591.849,3842.792 c 1.406,-1.908 5.511,-5.126 8.82,-3.474 0.257,0.3 0.056,1.503 -1.329,2.699 -1.385,1.195 -1.613,2.485 -1.766,2.833 -0.153,0.347 -0.962,1.807 -4.435,1.115 1.555,0.926 5.324,3.337 0.616,5.464 -0.423,0.087 -3.661,-0.093 -3.26,-4.316 0.6,-2.757 0.323,-2.924 1.354,-4.321 z"
     id="path828"
     style="fill:url(#b)" /><path
     d="m 589.738,3842.13 c -0.066,-2.369 -1.6,-7.354 -5.26,-7.886 -0.383,0.1 -0.904,1.202 -0.449,2.974 0.455,1.772 -0.093,2.962 -0.166,3.334 -0.073,0.373 -0.242,2.033 3.006,3.446 -1.805,-0.126 -6.277,-0.297 -3.624,4.136 0.297,0.313 3.059,2.013 5.14,-1.684 1.079,-2.605 1.401,-2.584 1.353,-4.32 z"
     id="path835"
     style="fill:url(#c)" /><ellipse
     transform="rotate(17.397)"
     cx="1712.6608"
     cy="3492.3518"
     rx="0.61299998"
     ry="2.892"
     id="ellipse837"
     style="fill:#322512" /><circle
     cx="591.10101"
     cy="3841.585"
     r="0.53399998"
     id="circle839"
     style="fill:#322512" /><ellipse
     transform="rotate(48.982)"
     cx="3255.073"
     cy="2038.1248"
     rx="1.4579999"
     ry="6.8800001"
     id="ellipse841"
     style="fill:#322512" /><circle
     cx="604.44598"
     cy="3788.667"
     r="1.271"
     id="circle843"
     style="fill:#322512" /><path
     d="m 602.007,3792.966 c 0,0 2.033,-2.855 7.454,-1.683 3.317,0.659 8.265,1.352 10.408,4.078 0.606,1.091 1.245,1.563 -0.226,2.5 -1.471,0.937 -2.472,1.693 -4.597,1.484 -1.511,0.629 -7.208,3.412 -10.482,0.372 -1.986,-2.217 -3.025,-3.543 -2.733,-2.025 0.292,1.519 2.973,6.637 -1.661,9.372 -0.877,0.306 -8.353,-1.804 -2.773,-9.496 1.803,-2.046 2.972,-3.334 4.61,-4.602 z"
     id="path860"
     style="fill:url(#d)" /><path
     d="m 599.852,3790.489 c 0,0 3.109,-1.618 2.698,-7.15 -0.193,-3.376 -0.194,-8.372 -2.598,-10.872 -0.996,-0.751 -1.376,-1.45 -2.508,-0.122 -1.132,1.328 -2.019,2.214 -2.106,4.348 -0.832,1.41 -4.377,6.666 -1.819,10.329 1.921,2.274 3.09,3.486 1.627,2.987 -1.463,-0.499 -6.162,-3.863 -9.512,0.347 -0.424,0.827 0.63,8.523 9.021,4.061 2.277,-1.502 3.714,-2.483 5.197,-3.928 z"
     id="path877"
     style="fill:url(#e)" /><ellipse
     transform="rotate(-34.755)"
     cx="-1639.0051"
     cy="3406.9529"
     rx="2.79"
     ry="10.115"
     id="ellipse879"
     style="fill:#322512" /><circle
     cx="589.02698"
     cy="3723.7839"
     r="2.4319999"
     id="circle881"
     style="fill:#322512" /><path
     d="m 593.239,3719.52 c 0,0 0.412,11.114 13.559,19.539 4.083,2.93 15.468,-1.213 10.332,-9.476 0,0 -4.475,-6.294 -11.41,-1.921 -0.169,-2.212 -0.44,-1.127 1.174,-3.784 1.614,-2.657 3.047,-7.238 -1.552,-12.757 -0.631,-1.74 -2.343,-3.561 -2.839,-12.12 -0.134,-0.932 -1.572,-7.619 -6.93,4.041 -1.551,5.239 -2.185,12.724 -2.334,16.478 z"
     id="path894"
     style="fill:url(#f)" /><path
     d="m 583.558,3726.237 c 0,0 10.267,4.275 13.559,19.539 1.316,4.85 -6.549,14.066 -12.492,6.363 0,0 -4.33,-6.394 2.193,-11.361 -2.013,-0.932 -0.902,-0.807 -3.956,-0.225 -3.054,0.583 -7.846,0.322 -11.407,-5.917 -1.409,-1.2 -2.516,-3.441 -10.36,-6.9 -0.826,-0.452 -6.587,-4.139 6.211,-5.078 5.451,0.38 12.684,2.405 16.252,3.579 z"
     id="path907"
     style="fill:url(#g)" /></g></svg>